<?xml version="1.0" standalone="no"?>
<!DOCTYPE svg PUBLIC "-//W3C//DTD SVG 20010904//EN"
 "http://www.w3.org/TR/2001/REC-SVG-20010904/DTD/svg10.dtd">
<svg version="1.0" xmlns="http://www.w3.org/2000/svg"
 width="112.000000pt" height="112.000000pt" viewBox="0 0 112.000000 112.000000"
 preserveAspectRatio="xMidYMid meet">
<metadata>
Created by potrace 1.11, written by Peter Selinger 2001-2013
</metadata>
<g transform="translate(0.000000,112.000000) scale(0.100000,-0.100000)"
fill="#000000" stroke="none">
<path d="M455 944 l-100 -174 -142 0 c-107 0 -143 -3 -144 -12 -1 -7 -2 -71
-3 -143 l-2 -130 39 -41 39 -42 -71 -121 c-38 -67 -69 -122 -68 -123 3 -1
1117 -5 1117 -3 0 1 -34 60 -75 130 -75 128 -75 129 -75 202 l0 73 -44 0 c-30
0 -46 5 -50 15 -6 17 0 18 107 16 l67 0 0 89 0 90 -144 0 -143 0 -98 170 c-54
94 -101 172 -104 174 -3 2 -51 -74 -106 -170z m157 -87 l47 -82 -45 -3 -44 -3
0 -266 c0 -147 -3 -264 -6 -260 -3 3 -7 122 -7 264 l-2 258 -47 5 -48 5 48 82
c26 46 49 83 52 83 3 0 26 -38 52 -83z m-114 -165 c2 -7 -2 -10 -12 -6 -9 3
-16 11 -16 16 0 13 23 5 28 -10z m162 14 c0 -2 -7 -9 -15 -16 -12 -10 -15 -10
-15 4 0 9 7 16 15 16 8 0 15 -2 15 -4z m-292 -158 c-3 -40 -5 -43 -35 -46
l-32 -3 25 45 c14 25 30 46 35 46 6 0 9 -19 7 -42z m406 27 c3 -8 1 -15 -4
-15 -6 0 -10 7 -10 15 0 8 2 15 4 15 2 0 6 -7 10 -15z m148 -255 c21 -36 38
-68 38 -72 0 -5 -45 -8 -100 -8 l-100 0 0 75 0 76 62 -3 62 -3 38 -65z m-636
1 c87 1 84 3 84 -41 l0 -40 -110 0 -110 0 27 49 c22 39 31 47 44 41 9 -5 38
-9 65 -9z"/>
<path d="M0 75 c0 -59 2 -65 20 -65 11 0 23 7 26 15 4 8 10 12 16 9 18 -12 58
38 58 73 l0 33 -60 0 -60 0 0 -65z m70 16 c0 -17 -18 -21 -24 -6 -3 9 0 15 9
15 8 0 15 -4 15 -9z"/>
<path d="M139 138 c-1 -2 -3 -31 -4 -65 -3 -60 -2 -63 20 -63 13 0 25 6 28 13
4 10 7 10 18 0 7 -7 24 -13 38 -13 24 0 24 0 5 21 -14 16 -15 22 -5 28 7 4 14
24 15 45 l3 36 -58 0 c-33 0 -60 -1 -60 -2z m71 -47 c0 -5 -7 -11 -15 -15 -9
-3 -15 0 -15 9 0 8 7 15 15 15 8 0 15 -4 15 -9z"/>
<path d="M270 92 c0 -61 20 -82 78 -82 l42 0 0 65 0 65 -60 0 -60 0 0 -48z
m70 -17 c0 -26 -14 -33 -25 -15 -9 14 1 40 15 40 5 0 10 -11 10 -25z"/>
<path d="M403 78 c2 -57 4 -63 25 -66 17 -3 22 2 22 17 0 16 6 21 25 21 37 0
35 37 -2 43 -23 3 -21 4 10 6 30 1 37 5 37 21 0 18 -7 20 -59 20 l-59 0 1 -62z"/>
<path d="M539 120 c-7 -102 -5 -110 21 -110 10 0 20 6 23 13 4 10 7 10 18 0 7
-7 24 -13 38 -13 24 0 24 0 5 21 -17 18 -17 22 -3 29 10 6 16 22 15 42 -1 33
-1 33 -58 36 -52 3 -58 1 -59 -18z m71 -29 c0 -5 -7 -11 -15 -15 -9 -3 -15 0
-15 9 0 8 7 15 15 15 8 0 15 -4 15 -9z"/>
<path d="M670 74 c0 -62 1 -65 22 -62 20 3 22 9 23 66 0 58 -2 62 -22 62 -22
0 -23 -4 -23 -66z"/>
<path d="M730 101 c0 -37 2 -40 33 -44 l32 -4 -32 -1 c-26 -2 -33 -6 -33 -22
0 -17 7 -20 43 -20 57 0 75 20 75 83 l0 47 -59 0 -59 0 0 -39z m100 -1 c0 -5
-5 -10 -11 -10 -5 0 -7 5 -4 10 3 6 8 10 11 10 2 0 4 -4 4 -10z"/>
<path d="M868 133 c-4 -7 -3 -93 1 -115 0 -5 10 -8 21 -8 15 0 20 7 20 26 0
31 23 28 28 -4 5 -32 52 -31 52 1 0 13 -6 29 -12 36 -10 11 -10 14 0 18 6 3
12 16 12 29 0 19 -5 24 -25 24 -18 0 -25 -5 -25 -20 0 -11 -7 -20 -15 -20 -8
0 -15 9 -15 20 0 13 -7 20 -19 20 -11 0 -21 -3 -23 -7z"/>
<path d="M1000 116 c0 -13 9 -35 20 -49 11 -14 20 -32 20 -41 0 -10 9 -16 26
-16 16 0 23 4 18 11 -3 6 3 24 15 40 27 37 28 79 2 79 -12 0 -21 -8 -23 -22
-5 -32 -28 -35 -28 -4 0 21 -5 26 -25 26 -20 0 -25 -5 -25 -24z"/>
</g>
</svg>
