<?xml version="1.0" standalone="no"?>
<!DOCTYPE svg PUBLIC "-//W3C//DTD SVG 20010904//EN"
 "http://www.w3.org/TR/2001/REC-SVG-20010904/DTD/svg10.dtd">
<svg version="1.0" xmlns="http://www.w3.org/2000/svg"
 width="1920.000000pt" height="1920.000000pt" viewBox="0 0 1920.000000 1920.000000"
 preserveAspectRatio="xMidYMid meet">
<metadata>
Created by potrace 1.11, written by Peter Selinger 2001-2013
</metadata>
<g transform="translate(0.000000,1920.000000) scale(0.100000,-0.100000)"
fill="#000000" stroke="none">
<path d="M9527 14829 c-89 -153 -129 -222 -148 -256 -78 -137 -293 -510 -299
-518 -4 -5 -19 -30 -32 -55 -14 -25 -110 -191 -213 -370 -103 -179 -203 -352
-222 -385 -19 -33 -43 -76 -55 -95 -55 -95 -254 -440 -274 -475 -12 -22 -61
-107 -109 -190 -76 -132 -287 -496 -335 -580 -10 -16 -42 -73 -73 -125 l-55
-95 -1318 0 -1319 0 0 -1314 0 -1315 248 -250 c136 -138 296 -299 354 -358
l106 -106 -25 -44 c-65 -113 -470 -817 -518 -898 -21 -36 -103 -177 -182 -315
-80 -137 -214 -371 -300 -520 -86 -148 -186 -322 -222 -385 -36 -63 -66 -117
-66 -120 0 -3 2299 -5 5110 -5 2811 0 5110 2 5110 5 0 3 -21 41 -46 85 -25 44
-56 98 -69 120 -29 52 -78 137 -147 255 -30 52 -117 203 -193 335 -260 450
-352 610 -404 700 -29 50 -111 191 -183 315 -71 124 -133 232 -138 240 -5 8
-48 83 -96 165 l-88 150 -1 660 -1 660 -379 2 c-349 2 -380 4 -389 20 -6 9
-23 38 -37 63 -124 214 -149 258 -149 266 0 5 361 9 858 9 l857 0 0 787 c0
518 -3 788 -10 789 -5 1 -599 2 -1319 3 l-1308 1 -220 380 c-418 725 -462 801
-568 985 -59 102 -320 554 -580 1005 -260 451 -479 831 -486 844 -12 22 -14
19 -67 -70z m169 -1659 c60 -104 118 -206 130 -227 11 -21 60 -104 107 -185
48 -81 87 -150 87 -153 0 -2 15 -28 33 -57 19 -29 47 -78 64 -108 17 -30 70
-122 118 -205 48 -82 97 -168 110 -190 50 -92 78 -141 85 -150 30 -39 116
-205 107 -206 -7 -1 -203 -2 -437 -3 l-425 -1 -3 -2427 -2 -2428 -55 0 -55 0
0 2428 0 2427 -475 0 c-261 0 -475 1 -475 1 0 1 32 58 71 126 39 67 82 141 94
163 13 22 46 81 75 130 29 50 62 106 72 125 21 36 105 182 123 212 6 9 26 45
46 80 51 90 62 108 204 353 70 121 161 280 203 353 42 72 79 132 82 132 4 0
56 -85 116 -190z m-740 -2029 l61 -1 0 -175 -1 -175 -29 27 c-21 21 -311 313
-324 326 -1 1 51 1 115 0 64 -1 144 -2 178 -2z m1600 -4 c2 -2 -75 -81 -171
-177 l-174 -174 0 177 1 176 56 3 c65 3 284 0 288 -5z m-2720 -1040 c9 -8 8
-886 -1 -895 -3 -4 -154 -7 -335 -8 l-328 0 30 55 c17 31 38 67 47 81 9 14 21
34 27 45 6 11 69 121 140 245 72 124 163 282 203 352 53 92 79 128 95 130 32
5 115 2 122 -5z m3629 1 c8 -10 75 -119 75 -122 0 -2 29 -53 65 -115 l64 -111
-77 -1 c-110 -1 -196 2 -201 7 -3 2 -4 79 -4 171 2 177 4 187 52 178 13 -2 24
-5 26 -7z m1177 -2033 c54 -93 103 -179 109 -190 5 -11 18 -33 28 -50 20 -34
159 -273 395 -685 87 -151 162 -279 167 -285 5 -5 9 -13 9 -17 0 -4 -442 -8
-982 -8 l-983 0 2 632 c1 348 2 665 2 703 l1 70 576 0 576 0 100 -170z m-5467
-451 c658 1 665 1 666 -19 3 -109 0 -757 -3 -761 -3 -2 -460 -3 -1016 -2
l-1011 3 12 22 c7 12 19 34 28 50 33 60 410 714 474 822 l26 43 80 -79 80 -79
664 0z"/>
<path d="M4452 5315 l0 -605 195 0 194 0 -3 122 -2 123 176 0 176 0 171 172
171 172 0 310 0 311 -539 0 -539 0 0 -605z m258 519 c0 -4 -162 -164 -166
-164 -2 0 -4 36 -4 79 l0 80 33 3 c35 3 137 5 137 2z m438 -344 l3 -83 -53
-54 -52 -53 -103 0 -103 0 0 133 c0 74 2 136 4 138 3 2 71 4 153 4 l148 -1 3
-84z"/>
<path d="M5700 5315 l0 -605 190 0 189 0 3 122 3 123 172 0 171 0 171 172 171
172 0 310 0 311 -535 0 -535 0 0 -605z m688 175 l3 -83 -53 -54 -52 -53 -103
0 -103 0 0 138 0 137 152 0 153 -1 3 -84z"/>
<path d="M6930 5487 l0 -432 173 -173 172 -172 363 0 362 0 0 605 0 605 -535
0 -535 0 0 -433z m688 -172 l-3 -260 -99 0 -98 0 -54 55 -54 55 0 201 c0 110
2 203 4 205 2 2 72 4 155 4 l151 0 -2 -260z"/>
<path d="M8180 5315 l0 -605 190 0 190 0 0 200 0 200 239 0 c182 0 240 3 243
13 2 6 4 80 3 162 l0 150 -225 2 c-124 0 -233 2 -243 2 -16 1 -18 9 -15 68 l3
68 330 -1 c182 0 332 3 335 7 4 6 5 303 1 332 -1 4 -237 7 -526 7 l-525 0 0
-605z m240 515 c0 -3 -35 -41 -77 -84 l-78 -78 -3 78 c-2 42 1 80 7 83 12 8
151 8 151 1z"/>
<path d="M9390 5315 l0 -605 190 0 189 0 3 122 3 122 172 1 171 0 171 173 171
172 0 310 0 310 -535 0 -535 0 0 -605z m688 174 l3 -85 -55 -52 -54 -52 -101
0 -101 0 0 134 c0 87 4 136 11 138 6 2 74 3 152 3 l142 -1 3 -85z"/>
<path d="M10610 5747 l0 -173 190 0 190 0 0 173 0 173 -190 0 -190 0 0 -173z"/>
<path d="M11168 5913 c-3 -7 -2 -723 1 -758 1 -7 109 -10 321 -10 177 0 325
-2 330 -5 6 -3 -8 -24 -30 -45 l-40 -39 -292 -1 -292 0 1 -165 c1 -91 2 -168
2 -172 1 -5 164 -8 364 -8 l362 0 172 173 171 172 1 218 0 217 -347 0 -347 0
2 32 c1 18 2 38 2 43 1 7 120 10 344 10 l342 0 2 173 1 172 -533 0 c-294 0
-535 -3 -537 -7z"/>
<path d="M12410 5315 l0 -605 190 0 190 0 0 225 0 225 102 0 101 0 54 -52 53
-53 0 -172 0 -173 190 0 190 0 0 225 0 225 -86 86 -86 87 86 86 86 86 0 208 0
207 -190 0 -190 0 0 -153 0 -153 -53 -55 -53 -54 -99 0 -100 0 -3 208 -2 207
-190 0 -190 0 0 -605z"/>
<path d="M13660 5668 l1 -253 169 -170 170 -170 0 -182 0 -183 190 0 190 0 0
181 0 182 175 172 175 172 0 251 0 252 -190 0 -190 0 0 -198 0 -198 -53 -52
c-49 -49 -56 -52 -103 -52 -47 0 -53 3 -102 53 l-52 53 0 197 0 197 -190 0
-190 0 0 -252z"/>
<path d="M10620 5522 c-6 -2 -10 -147 -10 -408 l0 -404 190 0 190 0 -2 407 -3
406 -178 1 c-97 1 -182 0 -187 -2z"/>
<path d="M6515 4970 l-69 -70 -88 0 c-49 0 -88 -2 -88 -4 0 -3 27 -45 60 -95
l60 -91 205 0 c113 0 205 2 205 5 0 2 -22 37 -49 77 -26 40 -73 112 -104 161
-31 48 -58 87 -60 87 -1 0 -34 -31 -72 -70z"/>
<path d="M10201 4969 l-64 -68 -89 -3 -90 -3 61 -92 61 -93 205 0 c113 0 205
2 205 5 0 10 -211 325 -218 324 -4 -1 -36 -32 -71 -70z"/>
</g>
</svg>
